<svg xmlns="http://www.w3.org/2000/svg" xmlns:xlink="http://www.w3.org/1999/xlink" version="1.1" id="Layer_1" x="0px" y="0px" viewBox="0 0 44.442 44.442" style="enable-background:new 0 0 379.236 379.236;" xml:space="preserve" width="60" height="60">
  <g>
    <g>
      <g>
        <path x="174.158" y="40.843" style="fill:#997668;" width="30.925" height="66.389" d="M20.409 4.786H24.033V12.566H20.409V4.786z"/>
        <path x="174.158" y="40.843" style="opacity:0.3;fill:#222222;" width="30.925" height="30.056" d="M20.409 4.786H24.033V8.308H20.409V4.786z"/>
      </g>
    </g>
    <g>
      <g>
        <path style="fill:#FF9500;" d="M31.681 33.348c2.224 0 4.026 1.803 4.026 4.026 0 2.224 -1.802 4.026 -4.026 4.026h-18.92c-2.224 0 -4.026 -1.803 -4.026 -4.026 0 -2.224 1.803 -4.026 4.026 -4.026z"/>
        <path style="opacity:0.2;fill:#222222;" d="M35.659 36.75c-0.3 1.927 -1.967 3.401 -3.978 3.401h-18.92c-2.011 0 -3.677 -1.475 -3.978 -3.401a4.055 4.055 0 0 0 -0.049 0.625c0 2.224 1.803 4.026 4.026 4.026h18.92c2.224 0 4.026 -1.803 4.026 -4.026a4.02 4.02 0 0 0 -0.048 -0.625"/>
        <path style="opacity:0.2;fill:#222222;" d="M12.761 33.348c-2.224 0 -4.026 1.803 -4.026 4.026 0 2.224 1.803 4.026 4.026 4.026h9.46V33.348h-9.46z"/>
      </g>
      <g>
        <path style="fill:#FFC843;" d="M35.371 25.882c2.224 0 4.026 1.803 4.026 4.026 0 2.224 -1.802 4.026 -4.026 4.026H9.071c-2.224 0 -4.026 -1.803 -4.026 -4.026s1.803 -4.026 4.026 -4.026z"/>
        <path style="opacity:0.4;fill:#FF9500;" d="M39.349 29.283c-0.3 1.927 -1.967 3.401 -3.978 3.401H9.071c-2.011 0 -3.677 -1.474 -3.978 -3.401a4.055 4.055 0 0 0 -0.049 0.625c0 2.224 1.803 4.026 4.026 4.026h26.3c2.224 0 4.026 -1.803 4.026 -4.026 0 -0.213 -0.017 -0.421 -0.049 -0.625"/>
        <path style="opacity:0.4;fill:#FF9500;" d="M9.071 25.882c-2.224 0 -4.026 1.803 -4.026 4.026 0 2.224 1.803 4.026 4.026 4.026h13.15v-8.052H9.071z"/>
      </g>
      <path style="fill:#333E48;" cx="245.933" cy="253.214" r="12.799" d="M30.32 29.674A1.5 1.5 0 0 1 28.82 31.173A1.5 1.5 0 0 1 27.32 29.674A1.5 1.5 0 0 1 30.32 29.674z"/>
      <g>
        <path style="fill:#FF9500;" d="M36.908 18.415c2.224 0 4.026 1.803 4.026 4.026s-1.802 4.026 -4.026 4.026H7.535c-2.224 0 -4.026 -1.803 -4.026 -4.026s1.803 -4.026 4.026 -4.026z"/>
        <path style="opacity:0.2;fill:#222222;" d="M40.886 21.816c-0.3 1.927 -1.967 3.401 -3.978 3.401H7.535c-2.011 0 -3.677 -1.475 -3.978 -3.401a4.055 4.055 0 0 0 -0.049 0.625c0 2.224 1.803 4.026 4.026 4.026h29.373c2.224 0 4.026 -1.803 4.026 -4.026a4.043 4.043 0 0 0 -0.048 -0.625"/>
        <path style="opacity:0.2;fill:#222222;" d="M7.535 18.415c-2.224 0 -4.026 1.803 -4.026 4.026s1.803 4.026 4.026 4.026h14.687v-8.053H7.535z"/>
      </g>
      <g>
        <path style="fill:#FFC843;" d="M33.153 10.949c2.224 0 4.026 1.803 4.026 4.026 0 2.224 -1.802 4.026 -4.026 4.026H11.289c-2.224 0 -4.026 -1.803 -4.026 -4.026S9.066 10.949 11.289 10.949z"/>
        <path style="opacity:0.4;fill:#FF9500;" d="M37.131 14.35c-0.3 1.927 -1.967 3.401 -3.978 3.401H11.289c-2.011 0 -3.677 -1.474 -3.978 -3.401a4.055 4.055 0 0 0 -0.049 0.625c0 2.224 1.803 4.026 4.026 4.026h21.864c2.224 0 4.026 -1.803 4.026 -4.026a4.043 4.043 0 0 0 -0.048 -0.625"/>
        <path style="opacity:0.4;fill:#FF9500;" d="M11.289 10.949c-2.224 0 -4.026 1.803 -4.026 4.026 0 2.224 1.803 4.026 4.026 4.026h10.932V10.949z"/>
      </g>
    </g>
    <path style="fill:#985F35;" d="M42.697 6.531H1.745C0.781 6.531 0 5.75 0 4.786S0.781 3.041 1.745 3.041h40.951c0.964 0 1.745 0.781 1.745 1.745 0 0.964 -0.782 1.745 -1.745 1.745"/>
  </g>
</svg>
